<!--?xml version="1.0" standalone="no"?-->
              <svg id="sw-js-blob-svg" viewBox="0 0 100 100" xmlns="http://www.w3.org/2000/svg" version="1.1">
                    <defs> 
                        <linearGradient id="sw-gradient" x1="0" x2="1" y1="1" y2="0">
                            <stop id="stop1" stop-color="rgba(105, 154, 159, 1)" offset="0%"></stop>
                            <stop id="stop2" stop-color="rgba(105, 154, 159, 1)" offset="100%"></stop>
                        </linearGradient>
                    </defs>
                <path fill="url(#sw-gradient)" d="M15.3,-19.3C21.8,-16.3,30.5,-14.5,33,-9.9C35.6,-5.4,32,1.9,29.2,9.1C26.4,16.4,24.3,23.5,19.6,29.1C14.8,34.8,7.4,39,-0.9,40.2C-9.3,41.5,-18.5,39.9,-22,33.8C-25.6,27.8,-23.3,17.3,-24.9,8.9C-26.4,0.6,-31.7,-5.7,-31.5,-11.4C-31.3,-17.1,-25.5,-22.1,-19.3,-25.3C-13.2,-28.4,-6.6,-29.6,-1.1,-28C4.4,-26.5,8.7,-22.3,15.3,-19.3Z" width="100%" height="100%" transform="translate(50 50)" stroke-width="0" style="transition: all 0.3s ease 0s;" stroke="url(#sw-gradient)"></path>
              </svg>